<mxfile host="app.diagrams.net" modified="2023-05-19T08:19:14.215Z" agent="Mozilla/5.0 (Macintosh; Intel Mac OS X 10_15_7) AppleWebKit/605.1.15 (KHTML, like Gecko) Version/16.4 Safari/605.1.15" etag="Xgwst5zVD1l0zpjuqGZQ" version="21.3.2" type="github">
  <diagram id="C5RBs43oDa-KdzZeNtuy" name="Page-1">
    <mxGraphModel dx="1908" dy="1244" grid="1" gridSize="10" guides="1" tooltips="1" connect="1" arrows="1" fold="1" page="1" pageScale="1" pageWidth="1654" pageHeight="1169" math="0" shadow="0">
      <root>
        <mxCell id="WIyWlLk6GJQsqaUBKTNV-0" />
        <mxCell id="WIyWlLk6GJQsqaUBKTNV-1" parent="WIyWlLk6GJQsqaUBKTNV-0" />
        <mxCell id="rwzerjP3Sv6OuTvO2_s--158" value="" style="group" parent="WIyWlLk6GJQsqaUBKTNV-1" vertex="1" connectable="0">
          <mxGeometry x="347" y="40" width="960" height="970" as="geometry" />
        </mxCell>
        <mxCell id="rwzerjP3Sv6OuTvO2_s--1" value="&lt;font style=&quot;font-size: 14px;&quot;&gt;Locations and connections&lt;/font&gt;" style="rounded=1;whiteSpace=wrap;html=1;" parent="rwzerjP3Sv6OuTvO2_s--158" vertex="1">
          <mxGeometry x="280" y="80" width="160" height="40" as="geometry" />
        </mxCell>
        <mxCell id="rwzerjP3Sv6OuTvO2_s--3" value="&lt;font style=&quot;font-size: 14px;&quot;&gt;Size and features&lt;/font&gt;" style="rounded=1;whiteSpace=wrap;html=1;" parent="rwzerjP3Sv6OuTvO2_s--158" vertex="1">
          <mxGeometry x="20" y="80" width="160" height="40" as="geometry" />
        </mxCell>
        <mxCell id="rwzerjP3Sv6OuTvO2_s--4" value="&lt;font style=&quot;font-size: 14px;&quot;&gt;Structural Condition&lt;/font&gt;" style="rounded=1;whiteSpace=wrap;html=1;" parent="rwzerjP3Sv6OuTvO2_s--158" vertex="1">
          <mxGeometry x="520" y="80" width="160" height="40" as="geometry" />
        </mxCell>
        <mxCell id="rwzerjP3Sv6OuTvO2_s--8" value="&lt;font style=&quot;font-size: 14px;&quot;&gt;Environment and Economy&lt;/font&gt;" style="rounded=1;whiteSpace=wrap;html=1;" parent="rwzerjP3Sv6OuTvO2_s--158" vertex="1">
          <mxGeometry x="780" y="80" width="160" height="40" as="geometry" />
        </mxCell>
        <mxCell id="rwzerjP3Sv6OuTvO2_s--10" value="&lt;font style=&quot;font-size: 12px;&quot;&gt;No. of Bedrooms&lt;/font&gt;" style="rounded=1;whiteSpace=wrap;html=1;" parent="rwzerjP3Sv6OuTvO2_s--158" vertex="1">
          <mxGeometry y="140" width="200" height="30" as="geometry" />
        </mxCell>
        <mxCell id="rwzerjP3Sv6OuTvO2_s--97" style="edgeStyle=orthogonalEdgeStyle;rounded=0;orthogonalLoop=1;jettySize=auto;html=1;entryX=0.5;entryY=0;entryDx=0;entryDy=0;" parent="rwzerjP3Sv6OuTvO2_s--158" source="rwzerjP3Sv6OuTvO2_s--3" target="rwzerjP3Sv6OuTvO2_s--10" edge="1">
          <mxGeometry relative="1" as="geometry" />
        </mxCell>
        <mxCell id="rwzerjP3Sv6OuTvO2_s--11" value="" style="edgeStyle=orthogonalEdgeStyle;rounded=0;orthogonalLoop=1;jettySize=auto;html=1;exitX=1;exitY=0.5;exitDx=0;exitDy=0;entryX=0.5;entryY=0;entryDx=0;entryDy=0;" parent="rwzerjP3Sv6OuTvO2_s--158" target="WIyWlLk6GJQsqaUBKTNV-3" edge="1">
          <mxGeometry relative="1" as="geometry">
            <mxPoint x="503" y="20" as="sourcePoint" />
            <mxPoint x="582" y="80" as="targetPoint" />
            <Array as="points" />
          </mxGeometry>
        </mxCell>
        <mxCell id="rwzerjP3Sv6OuTvO2_s--63" style="edgeStyle=orthogonalEdgeStyle;rounded=0;orthogonalLoop=1;jettySize=auto;html=1;exitX=0.5;exitY=1;exitDx=0;exitDy=0;" parent="rwzerjP3Sv6OuTvO2_s--158" source="WIyWlLk6GJQsqaUBKTNV-3" edge="1">
          <mxGeometry relative="1" as="geometry">
            <mxPoint x="580" y="80" as="targetPoint" />
            <Array as="points">
              <mxPoint x="480" y="60" />
              <mxPoint x="580" y="60" />
              <mxPoint x="580" y="80" />
            </Array>
          </mxGeometry>
        </mxCell>
        <mxCell id="WIyWlLk6GJQsqaUBKTNV-3" value="&lt;font style=&quot;font-size: 14px;&quot;&gt;FACTORS AFFECTING HOME PRICES&lt;/font&gt;" style="rounded=1;whiteSpace=wrap;html=1;fontSize=12;glass=0;strokeWidth=1;shadow=0;" parent="rwzerjP3Sv6OuTvO2_s--158" vertex="1">
          <mxGeometry x="400" width="160" height="40" as="geometry" />
        </mxCell>
        <mxCell id="rwzerjP3Sv6OuTvO2_s--0" style="edgeStyle=orthogonalEdgeStyle;rounded=0;orthogonalLoop=1;jettySize=auto;html=1;exitX=0.461;exitY=1;exitDx=0;exitDy=0;exitPerimeter=0;" parent="rwzerjP3Sv6OuTvO2_s--158" source="WIyWlLk6GJQsqaUBKTNV-3" target="rwzerjP3Sv6OuTvO2_s--1" edge="1">
          <mxGeometry relative="1" as="geometry">
            <mxPoint x="474" y="80" as="targetPoint" />
            <Array as="points">
              <mxPoint x="480" y="40" />
              <mxPoint x="480" y="60" />
              <mxPoint x="380" y="60" />
            </Array>
          </mxGeometry>
        </mxCell>
        <mxCell id="rwzerjP3Sv6OuTvO2_s--2" style="edgeStyle=orthogonalEdgeStyle;rounded=0;orthogonalLoop=1;jettySize=auto;html=1;entryX=0.5;entryY=0;entryDx=0;entryDy=0;" parent="rwzerjP3Sv6OuTvO2_s--158" source="WIyWlLk6GJQsqaUBKTNV-3" target="rwzerjP3Sv6OuTvO2_s--3" edge="1">
          <mxGeometry relative="1" as="geometry">
            <mxPoint x="130" y="70" as="targetPoint" />
          </mxGeometry>
        </mxCell>
        <mxCell id="rwzerjP3Sv6OuTvO2_s--9" style="edgeStyle=orthogonalEdgeStyle;rounded=0;orthogonalLoop=1;jettySize=auto;html=1;entryX=0.5;entryY=0;entryDx=0;entryDy=0;" parent="rwzerjP3Sv6OuTvO2_s--158" source="WIyWlLk6GJQsqaUBKTNV-3" target="rwzerjP3Sv6OuTvO2_s--8" edge="1">
          <mxGeometry relative="1" as="geometry" />
        </mxCell>
        <mxCell id="rwzerjP3Sv6OuTvO2_s--12" value="&lt;font style=&quot;font-size: 12px;&quot;&gt;No. of Kitchens&lt;/font&gt;" style="rounded=1;whiteSpace=wrap;html=1;" parent="rwzerjP3Sv6OuTvO2_s--158" vertex="1">
          <mxGeometry y="190" width="200" height="30" as="geometry" />
        </mxCell>
        <mxCell id="rwzerjP3Sv6OuTvO2_s--98" style="edgeStyle=orthogonalEdgeStyle;rounded=0;orthogonalLoop=1;jettySize=auto;html=1;entryX=0.5;entryY=0;entryDx=0;entryDy=0;" parent="rwzerjP3Sv6OuTvO2_s--158" source="rwzerjP3Sv6OuTvO2_s--10" target="rwzerjP3Sv6OuTvO2_s--12" edge="1">
          <mxGeometry relative="1" as="geometry" />
        </mxCell>
        <mxCell id="rwzerjP3Sv6OuTvO2_s--13" value="&lt;font style=&quot;font-size: 12px;&quot;&gt;No. of Fireplaces&lt;/font&gt;" style="rounded=1;whiteSpace=wrap;html=1;" parent="rwzerjP3Sv6OuTvO2_s--158" vertex="1">
          <mxGeometry y="290" width="200" height="30" as="geometry" />
        </mxCell>
        <mxCell id="rwzerjP3Sv6OuTvO2_s--100" style="edgeStyle=orthogonalEdgeStyle;rounded=0;orthogonalLoop=1;jettySize=auto;html=1;entryX=0.5;entryY=0;entryDx=0;entryDy=0;" parent="rwzerjP3Sv6OuTvO2_s--158" source="rwzerjP3Sv6OuTvO2_s--14" target="rwzerjP3Sv6OuTvO2_s--13" edge="1">
          <mxGeometry relative="1" as="geometry" />
        </mxCell>
        <mxCell id="rwzerjP3Sv6OuTvO2_s--14" value="&lt;font style=&quot;font-size: 12px;&quot;&gt;No. of Bathrooms&lt;/font&gt;" style="rounded=1;whiteSpace=wrap;html=1;" parent="rwzerjP3Sv6OuTvO2_s--158" vertex="1">
          <mxGeometry y="240" width="200" height="30" as="geometry" />
        </mxCell>
        <mxCell id="rwzerjP3Sv6OuTvO2_s--99" style="edgeStyle=orthogonalEdgeStyle;rounded=0;orthogonalLoop=1;jettySize=auto;html=1;entryX=0.5;entryY=0;entryDx=0;entryDy=0;" parent="rwzerjP3Sv6OuTvO2_s--158" source="rwzerjP3Sv6OuTvO2_s--12" target="rwzerjP3Sv6OuTvO2_s--14" edge="1">
          <mxGeometry relative="1" as="geometry" />
        </mxCell>
        <mxCell id="rwzerjP3Sv6OuTvO2_s--15" value="&lt;font style=&quot;font-size: 12px;&quot;&gt;Interior Living Area&lt;/font&gt;" style="rounded=1;whiteSpace=wrap;html=1;" parent="rwzerjP3Sv6OuTvO2_s--158" vertex="1">
          <mxGeometry y="340" width="200" height="30" as="geometry" />
        </mxCell>
        <mxCell id="rwzerjP3Sv6OuTvO2_s--16" value="&lt;font style=&quot;font-size: 12px;&quot;&gt;Total Area of Lawn&lt;/font&gt;" style="rounded=1;whiteSpace=wrap;html=1;" parent="rwzerjP3Sv6OuTvO2_s--158" vertex="1">
          <mxGeometry y="390" width="200" height="30" as="geometry" />
        </mxCell>
        <mxCell id="rwzerjP3Sv6OuTvO2_s--17" value="&lt;font style=&quot;font-size: 12px;&quot;&gt;Total Area of Attic&lt;/font&gt;" style="rounded=1;whiteSpace=wrap;html=1;" parent="rwzerjP3Sv6OuTvO2_s--158" vertex="1">
          <mxGeometry y="490" width="200" height="30" as="geometry" />
        </mxCell>
        <mxCell id="rwzerjP3Sv6OuTvO2_s--18" value="&lt;font style=&quot;font-size: 12px;&quot;&gt;Total Area of Basement&lt;/font&gt;" style="rounded=1;whiteSpace=wrap;html=1;" parent="rwzerjP3Sv6OuTvO2_s--158" vertex="1">
          <mxGeometry y="440" width="200" height="30" as="geometry" />
        </mxCell>
        <mxCell id="rwzerjP3Sv6OuTvO2_s--19" value="&lt;font style=&quot;font-size: 12px;&quot;&gt;Total Area of Driveway&lt;/font&gt;" style="rounded=1;whiteSpace=wrap;html=1;" parent="rwzerjP3Sv6OuTvO2_s--158" vertex="1">
          <mxGeometry y="540" width="200" height="30" as="geometry" />
        </mxCell>
        <mxCell id="rwzerjP3Sv6OuTvO2_s--20" value="&lt;font style=&quot;font-size: 12px;&quot;&gt;Total Area of Garage&lt;/font&gt;" style="rounded=1;whiteSpace=wrap;html=1;" parent="rwzerjP3Sv6OuTvO2_s--158" vertex="1">
          <mxGeometry y="590" width="200" height="30" as="geometry" />
        </mxCell>
        <mxCell id="rwzerjP3Sv6OuTvO2_s--21" value="&lt;font style=&quot;font-size: 12px;&quot;&gt;Depth of the Basement&lt;/font&gt;" style="rounded=1;whiteSpace=wrap;html=1;" parent="rwzerjP3Sv6OuTvO2_s--158" vertex="1">
          <mxGeometry y="690" width="200" height="30" as="geometry" />
        </mxCell>
        <mxCell id="rwzerjP3Sv6OuTvO2_s--108" style="edgeStyle=orthogonalEdgeStyle;rounded=0;orthogonalLoop=1;jettySize=auto;html=1;entryX=0.5;entryY=0;entryDx=0;entryDy=0;" parent="rwzerjP3Sv6OuTvO2_s--158" source="rwzerjP3Sv6OuTvO2_s--22" target="rwzerjP3Sv6OuTvO2_s--21" edge="1">
          <mxGeometry relative="1" as="geometry" />
        </mxCell>
        <mxCell id="rwzerjP3Sv6OuTvO2_s--22" value="&lt;font style=&quot;font-size: 12px;&quot;&gt;No. of Floors&lt;/font&gt;" style="rounded=1;whiteSpace=wrap;html=1;" parent="rwzerjP3Sv6OuTvO2_s--158" vertex="1">
          <mxGeometry y="640" width="200" height="30" as="geometry" />
        </mxCell>
        <mxCell id="rwzerjP3Sv6OuTvO2_s--23" value="Total Area of Porch" style="rounded=1;whiteSpace=wrap;html=1;" parent="rwzerjP3Sv6OuTvO2_s--158" vertex="1">
          <mxGeometry y="740" width="200" height="30" as="geometry" />
        </mxCell>
        <mxCell id="rwzerjP3Sv6OuTvO2_s--109" style="edgeStyle=orthogonalEdgeStyle;rounded=0;orthogonalLoop=1;jettySize=auto;html=1;" parent="rwzerjP3Sv6OuTvO2_s--158" source="rwzerjP3Sv6OuTvO2_s--21" target="rwzerjP3Sv6OuTvO2_s--23" edge="1">
          <mxGeometry relative="1" as="geometry" />
        </mxCell>
        <mxCell id="rwzerjP3Sv6OuTvO2_s--24" value="&lt;font style=&quot;font-size: 12px;&quot;&gt;Total Area of Outdoor Pool&lt;/font&gt;" style="rounded=1;whiteSpace=wrap;html=1;" parent="rwzerjP3Sv6OuTvO2_s--158" vertex="1">
          <mxGeometry y="790" width="200" height="30" as="geometry" />
        </mxCell>
        <mxCell id="rwzerjP3Sv6OuTvO2_s--110" style="edgeStyle=orthogonalEdgeStyle;rounded=0;orthogonalLoop=1;jettySize=auto;html=1;" parent="rwzerjP3Sv6OuTvO2_s--158" source="rwzerjP3Sv6OuTvO2_s--23" target="rwzerjP3Sv6OuTvO2_s--24" edge="1">
          <mxGeometry relative="1" as="geometry" />
        </mxCell>
        <mxCell id="rwzerjP3Sv6OuTvO2_s--25" value="&lt;font style=&quot;font-size: 12px;&quot;&gt;Central Air Conditioning Amenity&lt;/font&gt;" style="rounded=1;whiteSpace=wrap;html=1;" parent="rwzerjP3Sv6OuTvO2_s--158" vertex="1">
          <mxGeometry y="890" width="200" height="30" as="geometry" />
        </mxCell>
        <mxCell id="rwzerjP3Sv6OuTvO2_s--112" style="edgeStyle=orthogonalEdgeStyle;rounded=0;orthogonalLoop=1;jettySize=auto;html=1;" parent="rwzerjP3Sv6OuTvO2_s--158" source="rwzerjP3Sv6OuTvO2_s--26" target="rwzerjP3Sv6OuTvO2_s--25" edge="1">
          <mxGeometry relative="1" as="geometry" />
        </mxCell>
        <mxCell id="rwzerjP3Sv6OuTvO2_s--26" value="&lt;font style=&quot;font-size: 12px;&quot;&gt;Area of Outdoor Sporting Facilities&lt;/font&gt;" style="rounded=1;whiteSpace=wrap;html=1;" parent="rwzerjP3Sv6OuTvO2_s--158" vertex="1">
          <mxGeometry y="840" width="200" height="30" as="geometry" />
        </mxCell>
        <mxCell id="rwzerjP3Sv6OuTvO2_s--111" style="edgeStyle=orthogonalEdgeStyle;rounded=0;orthogonalLoop=1;jettySize=auto;html=1;" parent="rwzerjP3Sv6OuTvO2_s--158" source="rwzerjP3Sv6OuTvO2_s--24" target="rwzerjP3Sv6OuTvO2_s--26" edge="1">
          <mxGeometry relative="1" as="geometry" />
        </mxCell>
        <mxCell id="rwzerjP3Sv6OuTvO2_s--28" value="Carpet Flooring Amenity" style="rounded=1;whiteSpace=wrap;html=1;" parent="rwzerjP3Sv6OuTvO2_s--158" vertex="1">
          <mxGeometry y="940" width="200" height="30" as="geometry" />
        </mxCell>
        <mxCell id="rwzerjP3Sv6OuTvO2_s--113" style="edgeStyle=orthogonalEdgeStyle;rounded=0;orthogonalLoop=1;jettySize=auto;html=1;" parent="rwzerjP3Sv6OuTvO2_s--158" source="rwzerjP3Sv6OuTvO2_s--25" target="rwzerjP3Sv6OuTvO2_s--28" edge="1">
          <mxGeometry relative="1" as="geometry" />
        </mxCell>
        <mxCell id="rwzerjP3Sv6OuTvO2_s--46" value="US State" style="rounded=1;whiteSpace=wrap;html=1;" parent="rwzerjP3Sv6OuTvO2_s--158" vertex="1">
          <mxGeometry x="260" y="140" width="200" height="30" as="geometry" />
        </mxCell>
        <mxCell id="rwzerjP3Sv6OuTvO2_s--47" value="&lt;font style=&quot;font-size: 12px;&quot;&gt;Total Population Density of City&lt;/font&gt;" style="rounded=1;whiteSpace=wrap;html=1;" parent="rwzerjP3Sv6OuTvO2_s--158" vertex="1">
          <mxGeometry x="260" y="190" width="200" height="30" as="geometry" />
        </mxCell>
        <mxCell id="rwzerjP3Sv6OuTvO2_s--48" value="&lt;font style=&quot;font-size: 12px;&quot;&gt;Length of Connected Alley&lt;/font&gt;" style="rounded=1;whiteSpace=wrap;html=1;" parent="rwzerjP3Sv6OuTvO2_s--158" vertex="1">
          <mxGeometry x="260" y="290" width="200" height="30" as="geometry" />
        </mxCell>
        <mxCell id="rwzerjP3Sv6OuTvO2_s--49" value="&lt;font style=&quot;font-size: 12px;&quot;&gt;Type of Connected Alley&lt;/font&gt;" style="rounded=1;whiteSpace=wrap;html=1;" parent="rwzerjP3Sv6OuTvO2_s--158" vertex="1">
          <mxGeometry x="260" y="240" width="200" height="30" as="geometry" />
        </mxCell>
        <mxCell id="rwzerjP3Sv6OuTvO2_s--50" value="&lt;font style=&quot;font-size: 12px;&quot;&gt;Distance to nearest Police Station&lt;/font&gt;" style="rounded=1;whiteSpace=wrap;html=1;" parent="rwzerjP3Sv6OuTvO2_s--158" vertex="1">
          <mxGeometry x="260" y="340" width="200" height="30" as="geometry" />
        </mxCell>
        <mxCell id="rwzerjP3Sv6OuTvO2_s--51" value="&lt;font style=&quot;font-size: 12px;&quot;&gt;Distance to nearest Airport&lt;/font&gt;" style="rounded=1;whiteSpace=wrap;html=1;" parent="rwzerjP3Sv6OuTvO2_s--158" vertex="1">
          <mxGeometry x="260" y="390" width="200" height="30" as="geometry" />
        </mxCell>
        <mxCell id="rwzerjP3Sv6OuTvO2_s--52" value="&lt;font style=&quot;font-size: 12px;&quot;&gt;Distance to nearest Cinema&lt;/font&gt;" style="rounded=1;whiteSpace=wrap;html=1;" parent="rwzerjP3Sv6OuTvO2_s--158" vertex="1">
          <mxGeometry x="260" y="490" width="200" height="30" as="geometry" />
        </mxCell>
        <mxCell id="rwzerjP3Sv6OuTvO2_s--53" value="&lt;font style=&quot;font-size: 12px;&quot;&gt;Distance to nearest Hospital&lt;/font&gt;" style="rounded=1;whiteSpace=wrap;html=1;" parent="rwzerjP3Sv6OuTvO2_s--158" vertex="1">
          <mxGeometry x="260" y="440" width="200" height="30" as="geometry" />
        </mxCell>
        <mxCell id="rwzerjP3Sv6OuTvO2_s--54" value="&lt;font style=&quot;font-size: 12px;&quot;&gt;Distance to nearest Shopping Center&lt;/font&gt;" style="rounded=1;whiteSpace=wrap;html=1;" parent="rwzerjP3Sv6OuTvO2_s--158" vertex="1">
          <mxGeometry x="260" y="540" width="200" height="30" as="geometry" />
        </mxCell>
        <mxCell id="rwzerjP3Sv6OuTvO2_s--55" value="&lt;font style=&quot;font-size: 12px;&quot;&gt;Distance to nearest Subway&lt;/font&gt;" style="rounded=1;whiteSpace=wrap;html=1;" parent="rwzerjP3Sv6OuTvO2_s--158" vertex="1">
          <mxGeometry x="260" y="590" width="200" height="30" as="geometry" />
        </mxCell>
        <mxCell id="rwzerjP3Sv6OuTvO2_s--56" value="&lt;font style=&quot;font-size: 11.5px;&quot;&gt;Quality Index of Employment Opportunities&lt;/font&gt;" style="rounded=1;whiteSpace=wrap;html=1;" parent="rwzerjP3Sv6OuTvO2_s--158" vertex="1">
          <mxGeometry x="260" y="690" width="200" height="30" as="geometry" />
        </mxCell>
        <mxCell id="rwzerjP3Sv6OuTvO2_s--57" value="&lt;font style=&quot;font-size: 12px;&quot;&gt;Quality Index of Schools in City&lt;/font&gt;" style="rounded=1;whiteSpace=wrap;html=1;" parent="rwzerjP3Sv6OuTvO2_s--158" vertex="1">
          <mxGeometry x="260" y="640" width="200" height="30" as="geometry" />
        </mxCell>
        <mxCell id="rwzerjP3Sv6OuTvO2_s--58" value="Total Traffic Density of City" style="rounded=1;whiteSpace=wrap;html=1;" parent="rwzerjP3Sv6OuTvO2_s--158" vertex="1">
          <mxGeometry x="260" y="740" width="200" height="30" as="geometry" />
        </mxCell>
        <mxCell id="rwzerjP3Sv6OuTvO2_s--67" value="Year of the House Built" style="rounded=1;whiteSpace=wrap;html=1;" parent="rwzerjP3Sv6OuTvO2_s--158" vertex="1">
          <mxGeometry x="500" y="190" width="200" height="30" as="geometry" />
        </mxCell>
        <mxCell id="rwzerjP3Sv6OuTvO2_s--68" value="&lt;font style=&quot;font-size: 12px;&quot;&gt;Architectural Style of Boundary Structure&lt;/font&gt;" style="rounded=1;whiteSpace=wrap;html=1;" parent="rwzerjP3Sv6OuTvO2_s--158" vertex="1">
          <mxGeometry x="500" y="290" width="200" height="30" as="geometry" />
        </mxCell>
        <mxCell id="rwzerjP3Sv6OuTvO2_s--69" value="&lt;font style=&quot;font-size: 12px;&quot;&gt;Year of most recent Renovation&lt;/font&gt;" style="rounded=1;whiteSpace=wrap;html=1;" parent="rwzerjP3Sv6OuTvO2_s--158" vertex="1">
          <mxGeometry x="500" y="240" width="200" height="30" as="geometry" />
        </mxCell>
        <mxCell id="rwzerjP3Sv6OuTvO2_s--70" value="&lt;font style=&quot;font-size: 12px;&quot;&gt;Architectural Style of Roof&lt;/font&gt;" style="rounded=1;whiteSpace=wrap;html=1;" parent="rwzerjP3Sv6OuTvO2_s--158" vertex="1">
          <mxGeometry x="500" y="340" width="200" height="30" as="geometry" />
        </mxCell>
        <mxCell id="rwzerjP3Sv6OuTvO2_s--71" value="&lt;font style=&quot;font-size: 12px;&quot;&gt;Material of the Roof&lt;/font&gt;" style="rounded=1;whiteSpace=wrap;html=1;" parent="rwzerjP3Sv6OuTvO2_s--158" vertex="1">
          <mxGeometry x="500" y="390" width="200" height="30" as="geometry" />
        </mxCell>
        <mxCell id="rwzerjP3Sv6OuTvO2_s--72" value="&lt;font style=&quot;font-size: 12px;&quot;&gt;Material of External Covering&lt;/font&gt;" style="rounded=1;whiteSpace=wrap;html=1;" parent="rwzerjP3Sv6OuTvO2_s--158" vertex="1">
          <mxGeometry x="500" y="490" width="200" height="30" as="geometry" />
        </mxCell>
        <mxCell id="rwzerjP3Sv6OuTvO2_s--73" value="Material of the Foundation" style="rounded=1;whiteSpace=wrap;html=1;" parent="rwzerjP3Sv6OuTvO2_s--158" vertex="1">
          <mxGeometry x="500" y="440" width="200" height="30" as="geometry" />
        </mxCell>
        <mxCell id="rwzerjP3Sv6OuTvO2_s--74" value="Whether there is Interior Design" style="rounded=1;whiteSpace=wrap;html=1;" parent="rwzerjP3Sv6OuTvO2_s--158" vertex="1">
          <mxGeometry x="500" y="540" width="200" height="30" as="geometry" />
        </mxCell>
        <mxCell id="rwzerjP3Sv6OuTvO2_s--75" value="&lt;font style=&quot;font-size: 12px;&quot;&gt;Slope of Land in Degrees&lt;/font&gt;" style="rounded=1;whiteSpace=wrap;html=1;" parent="rwzerjP3Sv6OuTvO2_s--158" vertex="1">
          <mxGeometry x="500" y="590" width="200" height="30" as="geometry" />
        </mxCell>
        <mxCell id="rwzerjP3Sv6OuTvO2_s--83" value="&lt;font style=&quot;font-size: 12px;&quot;&gt;Building Type&lt;/font&gt;" style="rounded=1;whiteSpace=wrap;html=1;" parent="rwzerjP3Sv6OuTvO2_s--158" vertex="1">
          <mxGeometry x="500" y="140" width="200" height="30" as="geometry" />
        </mxCell>
        <mxCell id="rwzerjP3Sv6OuTvO2_s--84" value="No. of Distinct Seasons Observed" style="rounded=1;whiteSpace=wrap;html=1;" parent="rwzerjP3Sv6OuTvO2_s--158" vertex="1">
          <mxGeometry x="760" y="190" width="200" height="30" as="geometry" />
        </mxCell>
        <mxCell id="rwzerjP3Sv6OuTvO2_s--85" value="&lt;font style=&quot;font-size: 12px;&quot;&gt;Maximum Observed Temperature&lt;/font&gt;" style="rounded=1;whiteSpace=wrap;html=1;" parent="rwzerjP3Sv6OuTvO2_s--158" vertex="1">
          <mxGeometry x="760" y="290" width="200" height="30" as="geometry" />
        </mxCell>
        <mxCell id="rwzerjP3Sv6OuTvO2_s--86" value="&lt;font style=&quot;font-size: 12px;&quot;&gt;Minimum Observed Temperature&lt;/font&gt;" style="rounded=1;whiteSpace=wrap;html=1;" parent="rwzerjP3Sv6OuTvO2_s--158" vertex="1">
          <mxGeometry x="760" y="240" width="200" height="30" as="geometry" />
        </mxCell>
        <mxCell id="rwzerjP3Sv6OuTvO2_s--87" value="&lt;font style=&quot;font-size: 12px;&quot;&gt;Mean Annual Temperature&lt;/font&gt;" style="rounded=1;whiteSpace=wrap;html=1;" parent="rwzerjP3Sv6OuTvO2_s--158" vertex="1">
          <mxGeometry x="760" y="340" width="200" height="30" as="geometry" />
        </mxCell>
        <mxCell id="rwzerjP3Sv6OuTvO2_s--88" value="&lt;font style=&quot;font-size: 12px;&quot;&gt;Mean Noise Levels&lt;/font&gt;" style="rounded=1;whiteSpace=wrap;html=1;" parent="rwzerjP3Sv6OuTvO2_s--158" vertex="1">
          <mxGeometry x="760" y="390" width="200" height="30" as="geometry" />
        </mxCell>
        <mxCell id="rwzerjP3Sv6OuTvO2_s--89" value="&lt;font style=&quot;font-size: 12px;&quot;&gt;Mean Selling Price of Homes in Neighborhood&lt;/font&gt;" style="rounded=1;whiteSpace=wrap;html=1;" parent="rwzerjP3Sv6OuTvO2_s--158" vertex="1">
          <mxGeometry x="760" y="490" width="200" height="30" as="geometry" />
        </mxCell>
        <mxCell id="rwzerjP3Sv6OuTvO2_s--90" value="Mean Household Income in the City" style="rounded=1;whiteSpace=wrap;html=1;" parent="rwzerjP3Sv6OuTvO2_s--158" vertex="1">
          <mxGeometry x="760" y="440" width="200" height="30" as="geometry" />
        </mxCell>
        <mxCell id="rwzerjP3Sv6OuTvO2_s--91" value="Unemployment Rate" style="rounded=1;whiteSpace=wrap;html=1;" parent="rwzerjP3Sv6OuTvO2_s--158" vertex="1">
          <mxGeometry x="760" y="540" width="200" height="30" as="geometry" />
        </mxCell>
        <mxCell id="rwzerjP3Sv6OuTvO2_s--92" value="&lt;font style=&quot;font-size: 12px;&quot;&gt;Inflation Rate&lt;/font&gt;" style="rounded=1;whiteSpace=wrap;html=1;" parent="rwzerjP3Sv6OuTvO2_s--158" vertex="1">
          <mxGeometry x="760" y="590" width="200" height="30" as="geometry" />
        </mxCell>
        <mxCell id="rwzerjP3Sv6OuTvO2_s--93" value="&lt;font style=&quot;font-size: 12px;&quot;&gt;EPA Air Quality index&lt;/font&gt;" style="rounded=1;whiteSpace=wrap;html=1;" parent="rwzerjP3Sv6OuTvO2_s--158" vertex="1">
          <mxGeometry x="760" y="140" width="200" height="30" as="geometry" />
        </mxCell>
        <mxCell id="rwzerjP3Sv6OuTvO2_s--94" value="&lt;font style=&quot;font-size: 12px;&quot;&gt;Crime Rate&lt;/font&gt;" style="rounded=1;whiteSpace=wrap;html=1;" parent="rwzerjP3Sv6OuTvO2_s--158" vertex="1">
          <mxGeometry x="760" y="640" width="200" height="30" as="geometry" />
        </mxCell>
        <mxCell id="rwzerjP3Sv6OuTvO2_s--95" value="&lt;font style=&quot;font-size: 12px;&quot;&gt;Mortgage Rate&lt;/font&gt;" style="rounded=1;whiteSpace=wrap;html=1;" parent="rwzerjP3Sv6OuTvO2_s--158" vertex="1">
          <mxGeometry x="760" y="690" width="200" height="30" as="geometry" />
        </mxCell>
        <mxCell id="rwzerjP3Sv6OuTvO2_s--101" style="edgeStyle=orthogonalEdgeStyle;rounded=0;orthogonalLoop=1;jettySize=auto;html=1;entryX=0.5;entryY=0;entryDx=0;entryDy=0;" parent="rwzerjP3Sv6OuTvO2_s--158" edge="1">
          <mxGeometry relative="1" as="geometry">
            <mxPoint x="99.68" y="320" as="sourcePoint" />
            <mxPoint x="99.68" y="340" as="targetPoint" />
          </mxGeometry>
        </mxCell>
        <mxCell id="rwzerjP3Sv6OuTvO2_s--102" style="edgeStyle=orthogonalEdgeStyle;rounded=0;orthogonalLoop=1;jettySize=auto;html=1;entryX=0.5;entryY=0;entryDx=0;entryDy=0;" parent="rwzerjP3Sv6OuTvO2_s--158" edge="1">
          <mxGeometry relative="1" as="geometry">
            <mxPoint x="99.68" y="520" as="sourcePoint" />
            <mxPoint x="99.68" y="540" as="targetPoint" />
          </mxGeometry>
        </mxCell>
        <mxCell id="rwzerjP3Sv6OuTvO2_s--103" style="edgeStyle=orthogonalEdgeStyle;rounded=0;orthogonalLoop=1;jettySize=auto;html=1;entryX=0.5;entryY=0;entryDx=0;entryDy=0;" parent="rwzerjP3Sv6OuTvO2_s--158" edge="1">
          <mxGeometry relative="1" as="geometry">
            <mxPoint x="99.68" y="470" as="sourcePoint" />
            <mxPoint x="99.68" y="490" as="targetPoint" />
          </mxGeometry>
        </mxCell>
        <mxCell id="rwzerjP3Sv6OuTvO2_s--104" style="edgeStyle=orthogonalEdgeStyle;rounded=0;orthogonalLoop=1;jettySize=auto;html=1;entryX=0.5;entryY=0;entryDx=0;entryDy=0;" parent="rwzerjP3Sv6OuTvO2_s--158" edge="1">
          <mxGeometry relative="1" as="geometry">
            <mxPoint x="99.68" y="420" as="sourcePoint" />
            <mxPoint x="99.68" y="440" as="targetPoint" />
          </mxGeometry>
        </mxCell>
        <mxCell id="rwzerjP3Sv6OuTvO2_s--105" style="edgeStyle=orthogonalEdgeStyle;rounded=0;orthogonalLoop=1;jettySize=auto;html=1;entryX=0.5;entryY=0;entryDx=0;entryDy=0;" parent="rwzerjP3Sv6OuTvO2_s--158" edge="1">
          <mxGeometry relative="1" as="geometry">
            <mxPoint x="99.68" y="570" as="sourcePoint" />
            <mxPoint x="99.68" y="590" as="targetPoint" />
          </mxGeometry>
        </mxCell>
        <mxCell id="rwzerjP3Sv6OuTvO2_s--106" style="edgeStyle=orthogonalEdgeStyle;rounded=0;orthogonalLoop=1;jettySize=auto;html=1;entryX=0.5;entryY=0;entryDx=0;entryDy=0;" parent="rwzerjP3Sv6OuTvO2_s--158" edge="1">
          <mxGeometry relative="1" as="geometry">
            <mxPoint x="99.68" y="370" as="sourcePoint" />
            <mxPoint x="99.68" y="390" as="targetPoint" />
          </mxGeometry>
        </mxCell>
        <mxCell id="rwzerjP3Sv6OuTvO2_s--107" style="edgeStyle=orthogonalEdgeStyle;rounded=0;orthogonalLoop=1;jettySize=auto;html=1;entryX=0.5;entryY=0;entryDx=0;entryDy=0;" parent="rwzerjP3Sv6OuTvO2_s--158" edge="1">
          <mxGeometry relative="1" as="geometry">
            <mxPoint x="99.69" y="620" as="sourcePoint" />
            <mxPoint x="99.69" y="640" as="targetPoint" />
          </mxGeometry>
        </mxCell>
        <mxCell id="rwzerjP3Sv6OuTvO2_s--114" style="edgeStyle=orthogonalEdgeStyle;rounded=0;orthogonalLoop=1;jettySize=auto;html=1;entryX=0.5;entryY=0;entryDx=0;entryDy=0;" parent="rwzerjP3Sv6OuTvO2_s--158" edge="1">
          <mxGeometry relative="1" as="geometry">
            <mxPoint x="359.84000000000003" y="120" as="sourcePoint" />
            <mxPoint x="359.84000000000003" y="140" as="targetPoint" />
          </mxGeometry>
        </mxCell>
        <mxCell id="rwzerjP3Sv6OuTvO2_s--115" style="edgeStyle=orthogonalEdgeStyle;rounded=0;orthogonalLoop=1;jettySize=auto;html=1;entryX=0.5;entryY=0;entryDx=0;entryDy=0;" parent="rwzerjP3Sv6OuTvO2_s--158" edge="1">
          <mxGeometry relative="1" as="geometry">
            <mxPoint x="359.84000000000003" y="170" as="sourcePoint" />
            <mxPoint x="359.84000000000003" y="190" as="targetPoint" />
          </mxGeometry>
        </mxCell>
        <mxCell id="rwzerjP3Sv6OuTvO2_s--116" style="edgeStyle=orthogonalEdgeStyle;rounded=0;orthogonalLoop=1;jettySize=auto;html=1;entryX=0.5;entryY=0;entryDx=0;entryDy=0;" parent="rwzerjP3Sv6OuTvO2_s--158" edge="1">
          <mxGeometry relative="1" as="geometry">
            <mxPoint x="359.84000000000003" y="220" as="sourcePoint" />
            <mxPoint x="359.84000000000003" y="240" as="targetPoint" />
          </mxGeometry>
        </mxCell>
        <mxCell id="rwzerjP3Sv6OuTvO2_s--117" style="edgeStyle=orthogonalEdgeStyle;rounded=0;orthogonalLoop=1;jettySize=auto;html=1;entryX=0.5;entryY=0;entryDx=0;entryDy=0;" parent="rwzerjP3Sv6OuTvO2_s--158" edge="1">
          <mxGeometry relative="1" as="geometry">
            <mxPoint x="359.84000000000003" y="270" as="sourcePoint" />
            <mxPoint x="359.84000000000003" y="290" as="targetPoint" />
          </mxGeometry>
        </mxCell>
        <mxCell id="rwzerjP3Sv6OuTvO2_s--118" style="edgeStyle=orthogonalEdgeStyle;rounded=0;orthogonalLoop=1;jettySize=auto;html=1;" parent="rwzerjP3Sv6OuTvO2_s--158" edge="1">
          <mxGeometry relative="1" as="geometry">
            <mxPoint x="360" y="720" as="sourcePoint" />
            <mxPoint x="360" y="740" as="targetPoint" />
          </mxGeometry>
        </mxCell>
        <mxCell id="rwzerjP3Sv6OuTvO2_s--119" style="edgeStyle=orthogonalEdgeStyle;rounded=0;orthogonalLoop=1;jettySize=auto;html=1;entryX=0.5;entryY=0;entryDx=0;entryDy=0;" parent="rwzerjP3Sv6OuTvO2_s--158" edge="1">
          <mxGeometry relative="1" as="geometry">
            <mxPoint x="359.68" y="670" as="sourcePoint" />
            <mxPoint x="359.68" y="690" as="targetPoint" />
          </mxGeometry>
        </mxCell>
        <mxCell id="rwzerjP3Sv6OuTvO2_s--124" style="edgeStyle=orthogonalEdgeStyle;rounded=0;orthogonalLoop=1;jettySize=auto;html=1;entryX=0.5;entryY=0;entryDx=0;entryDy=0;" parent="rwzerjP3Sv6OuTvO2_s--158" edge="1">
          <mxGeometry relative="1" as="geometry">
            <mxPoint x="359.52" y="320" as="sourcePoint" />
            <mxPoint x="359.52" y="340" as="targetPoint" />
          </mxGeometry>
        </mxCell>
        <mxCell id="rwzerjP3Sv6OuTvO2_s--125" style="edgeStyle=orthogonalEdgeStyle;rounded=0;orthogonalLoop=1;jettySize=auto;html=1;entryX=0.5;entryY=0;entryDx=0;entryDy=0;" parent="rwzerjP3Sv6OuTvO2_s--158" edge="1">
          <mxGeometry relative="1" as="geometry">
            <mxPoint x="359.68" y="520" as="sourcePoint" />
            <mxPoint x="359.68" y="540" as="targetPoint" />
          </mxGeometry>
        </mxCell>
        <mxCell id="rwzerjP3Sv6OuTvO2_s--126" style="edgeStyle=orthogonalEdgeStyle;rounded=0;orthogonalLoop=1;jettySize=auto;html=1;entryX=0.5;entryY=0;entryDx=0;entryDy=0;" parent="rwzerjP3Sv6OuTvO2_s--158" edge="1">
          <mxGeometry relative="1" as="geometry">
            <mxPoint x="359.52" y="470" as="sourcePoint" />
            <mxPoint x="359.52" y="490" as="targetPoint" />
          </mxGeometry>
        </mxCell>
        <mxCell id="rwzerjP3Sv6OuTvO2_s--127" style="edgeStyle=orthogonalEdgeStyle;rounded=0;orthogonalLoop=1;jettySize=auto;html=1;entryX=0.5;entryY=0;entryDx=0;entryDy=0;" parent="rwzerjP3Sv6OuTvO2_s--158" edge="1">
          <mxGeometry relative="1" as="geometry">
            <mxPoint x="359.52" y="420" as="sourcePoint" />
            <mxPoint x="359.52" y="440" as="targetPoint" />
          </mxGeometry>
        </mxCell>
        <mxCell id="rwzerjP3Sv6OuTvO2_s--128" style="edgeStyle=orthogonalEdgeStyle;rounded=0;orthogonalLoop=1;jettySize=auto;html=1;entryX=0.5;entryY=0;entryDx=0;entryDy=0;" parent="rwzerjP3Sv6OuTvO2_s--158" edge="1">
          <mxGeometry relative="1" as="geometry">
            <mxPoint x="359.68" y="570" as="sourcePoint" />
            <mxPoint x="359.68" y="590" as="targetPoint" />
          </mxGeometry>
        </mxCell>
        <mxCell id="rwzerjP3Sv6OuTvO2_s--129" style="edgeStyle=orthogonalEdgeStyle;rounded=0;orthogonalLoop=1;jettySize=auto;html=1;entryX=0.5;entryY=0;entryDx=0;entryDy=0;" parent="rwzerjP3Sv6OuTvO2_s--158" edge="1">
          <mxGeometry relative="1" as="geometry">
            <mxPoint x="359.52" y="370" as="sourcePoint" />
            <mxPoint x="359.52" y="390" as="targetPoint" />
          </mxGeometry>
        </mxCell>
        <mxCell id="rwzerjP3Sv6OuTvO2_s--130" style="edgeStyle=orthogonalEdgeStyle;rounded=0;orthogonalLoop=1;jettySize=auto;html=1;entryX=0.5;entryY=0;entryDx=0;entryDy=0;" parent="rwzerjP3Sv6OuTvO2_s--158" edge="1">
          <mxGeometry relative="1" as="geometry">
            <mxPoint x="359.68" y="620" as="sourcePoint" />
            <mxPoint x="359.68" y="640" as="targetPoint" />
          </mxGeometry>
        </mxCell>
        <mxCell id="rwzerjP3Sv6OuTvO2_s--131" value="" style="group" parent="rwzerjP3Sv6OuTvO2_s--158" vertex="1" connectable="0">
          <mxGeometry x="600" y="320" height="170" as="geometry" />
        </mxCell>
        <mxCell id="rwzerjP3Sv6OuTvO2_s--120" style="edgeStyle=orthogonalEdgeStyle;rounded=0;orthogonalLoop=1;jettySize=auto;html=1;" parent="rwzerjP3Sv6OuTvO2_s--131" edge="1">
          <mxGeometry relative="1" as="geometry">
            <mxPoint as="sourcePoint" />
            <mxPoint y="20" as="targetPoint" />
          </mxGeometry>
        </mxCell>
        <mxCell id="rwzerjP3Sv6OuTvO2_s--121" style="edgeStyle=orthogonalEdgeStyle;rounded=0;orthogonalLoop=1;jettySize=auto;html=1;" parent="rwzerjP3Sv6OuTvO2_s--131" edge="1">
          <mxGeometry relative="1" as="geometry">
            <mxPoint y="50" as="sourcePoint" />
            <mxPoint y="70" as="targetPoint" />
          </mxGeometry>
        </mxCell>
        <mxCell id="rwzerjP3Sv6OuTvO2_s--122" style="edgeStyle=orthogonalEdgeStyle;rounded=0;orthogonalLoop=1;jettySize=auto;html=1;" parent="rwzerjP3Sv6OuTvO2_s--131" edge="1">
          <mxGeometry relative="1" as="geometry">
            <mxPoint y="150" as="sourcePoint" />
            <mxPoint y="170" as="targetPoint" />
          </mxGeometry>
        </mxCell>
        <mxCell id="rwzerjP3Sv6OuTvO2_s--123" style="edgeStyle=orthogonalEdgeStyle;rounded=0;orthogonalLoop=1;jettySize=auto;html=1;" parent="rwzerjP3Sv6OuTvO2_s--131" edge="1">
          <mxGeometry relative="1" as="geometry">
            <mxPoint y="100" as="sourcePoint" />
            <mxPoint y="120" as="targetPoint" />
          </mxGeometry>
        </mxCell>
        <mxCell id="rwzerjP3Sv6OuTvO2_s--132" value="" style="group" parent="rwzerjP3Sv6OuTvO2_s--158" vertex="1" connectable="0">
          <mxGeometry x="600" y="120" height="170" as="geometry" />
        </mxCell>
        <mxCell id="rwzerjP3Sv6OuTvO2_s--133" style="edgeStyle=orthogonalEdgeStyle;rounded=0;orthogonalLoop=1;jettySize=auto;html=1;" parent="rwzerjP3Sv6OuTvO2_s--132" edge="1">
          <mxGeometry relative="1" as="geometry">
            <mxPoint as="sourcePoint" />
            <mxPoint y="20" as="targetPoint" />
          </mxGeometry>
        </mxCell>
        <mxCell id="rwzerjP3Sv6OuTvO2_s--134" style="edgeStyle=orthogonalEdgeStyle;rounded=0;orthogonalLoop=1;jettySize=auto;html=1;" parent="rwzerjP3Sv6OuTvO2_s--132" edge="1">
          <mxGeometry relative="1" as="geometry">
            <mxPoint y="50" as="sourcePoint" />
            <mxPoint y="70" as="targetPoint" />
          </mxGeometry>
        </mxCell>
        <mxCell id="rwzerjP3Sv6OuTvO2_s--135" style="edgeStyle=orthogonalEdgeStyle;rounded=0;orthogonalLoop=1;jettySize=auto;html=1;" parent="rwzerjP3Sv6OuTvO2_s--132" edge="1">
          <mxGeometry relative="1" as="geometry">
            <mxPoint y="150" as="sourcePoint" />
            <mxPoint y="170" as="targetPoint" />
          </mxGeometry>
        </mxCell>
        <mxCell id="rwzerjP3Sv6OuTvO2_s--136" style="edgeStyle=orthogonalEdgeStyle;rounded=0;orthogonalLoop=1;jettySize=auto;html=1;" parent="rwzerjP3Sv6OuTvO2_s--132" edge="1">
          <mxGeometry relative="1" as="geometry">
            <mxPoint y="100" as="sourcePoint" />
            <mxPoint y="120" as="targetPoint" />
          </mxGeometry>
        </mxCell>
        <mxCell id="rwzerjP3Sv6OuTvO2_s--142" value="" style="group" parent="rwzerjP3Sv6OuTvO2_s--158" vertex="1" connectable="0">
          <mxGeometry x="860" y="520" height="170" as="geometry" />
        </mxCell>
        <mxCell id="rwzerjP3Sv6OuTvO2_s--143" style="edgeStyle=orthogonalEdgeStyle;rounded=0;orthogonalLoop=1;jettySize=auto;html=1;" parent="rwzerjP3Sv6OuTvO2_s--142" edge="1">
          <mxGeometry relative="1" as="geometry">
            <mxPoint as="sourcePoint" />
            <mxPoint y="20" as="targetPoint" />
          </mxGeometry>
        </mxCell>
        <mxCell id="rwzerjP3Sv6OuTvO2_s--144" style="edgeStyle=orthogonalEdgeStyle;rounded=0;orthogonalLoop=1;jettySize=auto;html=1;" parent="rwzerjP3Sv6OuTvO2_s--142" edge="1">
          <mxGeometry relative="1" as="geometry">
            <mxPoint y="50" as="sourcePoint" />
            <mxPoint y="70" as="targetPoint" />
          </mxGeometry>
        </mxCell>
        <mxCell id="rwzerjP3Sv6OuTvO2_s--145" style="edgeStyle=orthogonalEdgeStyle;rounded=0;orthogonalLoop=1;jettySize=auto;html=1;" parent="rwzerjP3Sv6OuTvO2_s--142" edge="1">
          <mxGeometry relative="1" as="geometry">
            <mxPoint y="150" as="sourcePoint" />
            <mxPoint y="170" as="targetPoint" />
          </mxGeometry>
        </mxCell>
        <mxCell id="rwzerjP3Sv6OuTvO2_s--146" style="edgeStyle=orthogonalEdgeStyle;rounded=0;orthogonalLoop=1;jettySize=auto;html=1;" parent="rwzerjP3Sv6OuTvO2_s--142" edge="1">
          <mxGeometry relative="1" as="geometry">
            <mxPoint y="100" as="sourcePoint" />
            <mxPoint y="120" as="targetPoint" />
          </mxGeometry>
        </mxCell>
        <mxCell id="rwzerjP3Sv6OuTvO2_s--147" value="" style="group" parent="rwzerjP3Sv6OuTvO2_s--158" vertex="1" connectable="0">
          <mxGeometry x="860" y="320" height="170" as="geometry" />
        </mxCell>
        <mxCell id="rwzerjP3Sv6OuTvO2_s--148" style="edgeStyle=orthogonalEdgeStyle;rounded=0;orthogonalLoop=1;jettySize=auto;html=1;" parent="rwzerjP3Sv6OuTvO2_s--147" edge="1">
          <mxGeometry relative="1" as="geometry">
            <mxPoint as="sourcePoint" />
            <mxPoint y="20" as="targetPoint" />
          </mxGeometry>
        </mxCell>
        <mxCell id="rwzerjP3Sv6OuTvO2_s--149" style="edgeStyle=orthogonalEdgeStyle;rounded=0;orthogonalLoop=1;jettySize=auto;html=1;" parent="rwzerjP3Sv6OuTvO2_s--147" edge="1">
          <mxGeometry relative="1" as="geometry">
            <mxPoint y="50" as="sourcePoint" />
            <mxPoint y="70" as="targetPoint" />
          </mxGeometry>
        </mxCell>
        <mxCell id="rwzerjP3Sv6OuTvO2_s--150" style="edgeStyle=orthogonalEdgeStyle;rounded=0;orthogonalLoop=1;jettySize=auto;html=1;" parent="rwzerjP3Sv6OuTvO2_s--147" edge="1">
          <mxGeometry relative="1" as="geometry">
            <mxPoint y="150" as="sourcePoint" />
            <mxPoint y="170" as="targetPoint" />
          </mxGeometry>
        </mxCell>
        <mxCell id="rwzerjP3Sv6OuTvO2_s--151" style="edgeStyle=orthogonalEdgeStyle;rounded=0;orthogonalLoop=1;jettySize=auto;html=1;" parent="rwzerjP3Sv6OuTvO2_s--147" edge="1">
          <mxGeometry relative="1" as="geometry">
            <mxPoint y="100" as="sourcePoint" />
            <mxPoint y="120" as="targetPoint" />
          </mxGeometry>
        </mxCell>
        <mxCell id="rwzerjP3Sv6OuTvO2_s--152" value="" style="group" parent="rwzerjP3Sv6OuTvO2_s--158" vertex="1" connectable="0">
          <mxGeometry x="860" y="120" height="170" as="geometry" />
        </mxCell>
        <mxCell id="rwzerjP3Sv6OuTvO2_s--153" style="edgeStyle=orthogonalEdgeStyle;rounded=0;orthogonalLoop=1;jettySize=auto;html=1;" parent="rwzerjP3Sv6OuTvO2_s--152" edge="1">
          <mxGeometry relative="1" as="geometry">
            <mxPoint as="sourcePoint" />
            <mxPoint y="20" as="targetPoint" />
          </mxGeometry>
        </mxCell>
        <mxCell id="rwzerjP3Sv6OuTvO2_s--154" style="edgeStyle=orthogonalEdgeStyle;rounded=0;orthogonalLoop=1;jettySize=auto;html=1;" parent="rwzerjP3Sv6OuTvO2_s--152" edge="1">
          <mxGeometry relative="1" as="geometry">
            <mxPoint y="50" as="sourcePoint" />
            <mxPoint y="70" as="targetPoint" />
          </mxGeometry>
        </mxCell>
        <mxCell id="rwzerjP3Sv6OuTvO2_s--155" style="edgeStyle=orthogonalEdgeStyle;rounded=0;orthogonalLoop=1;jettySize=auto;html=1;" parent="rwzerjP3Sv6OuTvO2_s--152" edge="1">
          <mxGeometry relative="1" as="geometry">
            <mxPoint y="150" as="sourcePoint" />
            <mxPoint y="170" as="targetPoint" />
          </mxGeometry>
        </mxCell>
        <mxCell id="rwzerjP3Sv6OuTvO2_s--156" style="edgeStyle=orthogonalEdgeStyle;rounded=0;orthogonalLoop=1;jettySize=auto;html=1;" parent="rwzerjP3Sv6OuTvO2_s--152" edge="1">
          <mxGeometry relative="1" as="geometry">
            <mxPoint y="100" as="sourcePoint" />
            <mxPoint y="120" as="targetPoint" />
          </mxGeometry>
        </mxCell>
        <mxCell id="rwzerjP3Sv6OuTvO2_s--138" style="edgeStyle=orthogonalEdgeStyle;rounded=0;orthogonalLoop=1;jettySize=auto;html=1;" parent="rwzerjP3Sv6OuTvO2_s--158" edge="1">
          <mxGeometry relative="1" as="geometry">
            <mxPoint x="600" y="520" as="sourcePoint" />
            <mxPoint x="600" y="540" as="targetPoint" />
          </mxGeometry>
        </mxCell>
        <mxCell id="rwzerjP3Sv6OuTvO2_s--139" style="edgeStyle=orthogonalEdgeStyle;rounded=0;orthogonalLoop=1;jettySize=auto;html=1;" parent="rwzerjP3Sv6OuTvO2_s--158" edge="1">
          <mxGeometry relative="1" as="geometry">
            <mxPoint x="600" y="570" as="sourcePoint" />
            <mxPoint x="600" y="590" as="targetPoint" />
          </mxGeometry>
        </mxCell>
        <mxCell id="qLsqeKINByvR6Ij-18cb-0" value="&lt;div style=&quot;text-align: justify;&quot;&gt;&lt;span style=&quot;font-size: 18px;&quot;&gt;FLOWCHART OF ALL FACTORS AFFECTING U.S. HOUSING PRICE IN THE NEXT 10 YEARS IN MECE FRAMEWORK&lt;/span&gt;&lt;/div&gt;" style="text;html=1;align=center;verticalAlign=middle;resizable=0;points=[];autosize=1;strokeColor=none;fillColor=none;" vertex="1" parent="WIyWlLk6GJQsqaUBKTNV-1">
          <mxGeometry x="327" y="1080" width="1000" height="30" as="geometry" />
        </mxCell>
      </root>
    </mxGraphModel>
  </diagram>
</mxfile>
